<?xml version="1.0" encoding="UTF-8" standalone="no"?>
<!-- Created with Inkscape (http://www.inkscape.org/) -->

<svg
   xmlns:dc="http://purl.org/dc/elements/1.1/"
   xmlns:cc="http://creativecommons.org/ns#"
   xmlns:rdf="http://www.w3.org/1999/02/22-rdf-syntax-ns#"
   xmlns:svg="http://www.w3.org/2000/svg"
   xmlns="http://www.w3.org/2000/svg"
   xmlns:sodipodi="http://sodipodi.sourceforge.net/DTD/sodipodi-0.dtd"
   xmlns:inkscape="http://www.inkscape.org/namespaces/inkscape"
   width="16"
   height="16"
   id="svg7712"
   version="1.1"
   inkscape:version="0.91 r13725"
   viewBox="0 0 16 16"
   sodipodi:docname="testSetting.svg">
  <defs
     id="defs7714" />
  <sodipodi:namedview
     id="base"
     pagecolor="#ffffff"
     bordercolor="#666666"
     borderopacity="1.0"
     inkscape:pageopacity="0.0"
     inkscape:pageshadow="2"
     inkscape:zoom="22.197802"
     inkscape:cx="8"
     inkscape:cy="8"
     inkscape:current-layer="layer1"
     showgrid="true"
     inkscape:grid-bbox="true"
     inkscape:document-units="px"
     inkscape:window-width="1920"
     inkscape:window-height="1008"
     inkscape:window-x="0"
     inkscape:window-y="0"
     inkscape:window-maximized="1" />
  <metadata
     id="metadata7717">
    <rdf:RDF>
      <cc:Work
         rdf:about="">
        <dc:format>image/svg+xml</dc:format>
        <dc:type
           rdf:resource="http://purl.org/dc/dcmitype/StillImage" />
        <dc:title></dc:title>
      </cc:Work>
    </rdf:RDF>
  </metadata>
  <g
     id="layer1"
     inkscape:label="Layer 1"
     inkscape:groupmode="layer">
    <path
       style="fill:#b3b3b3;fill-rule:evenodd;stroke:#000000;stroke-width:0.7054221px;stroke-linecap:butt;stroke-linejoin:miter;stroke-opacity:1"
       d="M 1.4851057,12.900871 6.8021536,7.6830842 7.2059814,7.7888571 10.335638,4.263325 8.282852,1.5486651 9.8308541,1.3723866 C 10.47467,1.6262897 11.08133,1.7075878 11.547117,2.1480024 l 0.774,0.070514 0.942263,1.0224046 c 0.07843,0.4112559 -0.396757,0.5325335 0.235565,1.2339359 0.241648,0.2928017 0.566901,0.4104258 1.07687,0.141022 l 0.908611,1.0929163 -1.716262,1.8332751 -1.04322,-1.0576595 -0.134612,-1.092915 -1.043215,0.035262 -3.2979176,3.4197645 0.1682614,0.3878086 -5.081484,5.7113621 C 2.1630386,14.749469 1.5814132,14.037018 1.4851057,12.90087 Z"
       id="path3733"
       inkscape:connector-curvature="0"
       sodipodi:nodetypes="cccccccccccccccccccc" />
    <path
       style="fill:#b3b3b3;fill-rule:evenodd;stroke:#000000;stroke-width:0.67667991px;stroke-linecap:butt;stroke-linejoin:miter;stroke-opacity:1"
       d="M 9.5252316,11.989517 C 9.3554618,11.855707 3.9241276,6.0144296 3.9241276,6.0144296 L 1.5461658,5.5667337 0.401063,3.6499508 0.82691471,2.2692306 2.1848127,3.6515836 3.0773541,2.8504651 1.9316586,1.6465135 2.2295058,0.97850697 4.8619185,1.8719557 5.3270907,4.278187 l 5.7284763,6.019756 2.292912,0.581276 1.060346,1.693944 -0.425999,1.558928 -1.485271,-1.427023 -0.680266,0.890418 0.976074,0.891931 0.126711,0.846606 -2.420394,-0.492288 -1.2300447,-1.91686 z"
       id="path3524"
       inkscape:connector-curvature="0" />
  </g>
</svg>
