<?xml version="1.0" encoding="UTF-8" standalone="no"?>
<!-- Created with Inkscape (http://www.inkscape.org/) -->

<svg
   xmlns:dc="http://purl.org/dc/elements/1.1/"
   xmlns:cc="http://creativecommons.org/ns#"
   xmlns:rdf="http://www.w3.org/1999/02/22-rdf-syntax-ns#"
   xmlns:svg="http://www.w3.org/2000/svg"
   xmlns="http://www.w3.org/2000/svg"
   xmlns:sodipodi="http://sodipodi.sourceforge.net/DTD/sodipodi-0.dtd"
   xmlns:inkscape="http://www.inkscape.org/namespaces/inkscape"
   width="64"
   height="64"
   id="svg3432"
   version="1.1"
   inkscape:version="0.91 r13725"
   viewBox="0 0 64 64"
   sodipodi:docname="testSetting.svg">
  <defs
     id="defs3434" />
  <sodipodi:namedview
     id="base"
     pagecolor="#ffffff"
     bordercolor="#666666"
     borderopacity="1.0"
     inkscape:pageopacity="0.0"
     inkscape:pageshadow="2"
     inkscape:zoom="20.48"
     inkscape:cx="24.503237"
     inkscape:cy="23.165177"
     inkscape:current-layer="layer2"
     showgrid="false"
     inkscape:document-units="px"
     inkscape:grid-bbox="true"
     inkscape:window-width="1920"
     inkscape:window-height="1008"
     inkscape:window-x="0"
     inkscape:window-y="0"
     inkscape:window-maximized="1">
    <inkscape:grid
       type="xygrid"
       id="grid3646" />
  </sodipodi:namedview>
  <metadata
     id="metadata3437">
    <rdf:RDF>
      <cc:Work
         rdf:about="">
        <dc:format>image/svg+xml</dc:format>
        <dc:type
           rdf:resource="http://purl.org/dc/dcmitype/StillImage" />
        <dc:title></dc:title>
      </cc:Work>
    </rdf:RDF>
  </metadata>
  <g
     inkscape:groupmode="layer"
     id="layer8"
     inkscape:label="Hammer">
    <path
       style="fill:#b3b3b3;fill-rule:evenodd;stroke:#000000;stroke-width:1.04247522px;stroke-linecap:butt;stroke-linejoin:miter;stroke-opacity:1"
       d="m 16.379465,40.958485 8.04782,-7.528563 0.611228,0.152606 4.737008,-5.086868 -3.10707,-3.916888 2.343037,-0.254346 c 0.974473,0.366348 1.892706,0.48365 2.597714,1.119109 l 1.171518,0.101742 1.426197,1.475192 c 0.118688,0.593387 -0.600526,0.768374 0.356549,1.780403 0.365756,0.422472 0.858056,0.592189 1.629938,0.203476 l 1.375261,1.576929 -2.597714,2.64517 -1.579003,-1.526061 -0.203744,-1.576928 -1.579002,0.05087 -4.991686,4.934261 0.254677,0.559555 -7.691272,8.240725 C 17.405576,43.62576 16.525235,42.597791 16.379465,40.958484 Z"
       id="path3733"
       inkscape:connector-curvature="0"
       sodipodi:nodetypes="cccccccccccccccccccc" />
  </g>
  <g
     inkscape:groupmode="layer"
     id="layer2"
     inkscape:label="Wrench">
    <path
       style="fill:#b3b3b3;fill-rule:evenodd;stroke:#000000;stroke-width:1px;stroke-linecap:butt;stroke-linejoin:miter;stroke-opacity:1"
       d="M 28.548902,39.643523 C 28.29194,39.450452 20.071139,31.022277 20.071139,31.022277 l -3.599254,-0.645964 -1.733214,-2.765659 0.644564,-1.992193 2.055298,1.994549 1.35094,-1.155906 -1.734111,-1.73714 0.450818,-0.963843 3.984388,1.289126 0.704078,3.471867 8.670553,8.685697 3.470522,0.8387 1.604929,2.444134 -0.644788,2.249323 -2.248089,-2.059 -1.02964,1.284751 1.477373,1.286938 0.191783,1.221534 -3.663481,-0.710303 -1.861779,-2.765771 z"
       id="path3524"
       inkscape:connector-curvature="0" />
  </g>
</svg>
