<?xml version="1.0" encoding="UTF-8" standalone="no"?>
<!-- Created with Inkscape (http://www.inkscape.org/) -->

<svg
   xmlns:dc="http://purl.org/dc/elements/1.1/"
   xmlns:cc="http://creativecommons.org/ns#"
   xmlns:rdf="http://www.w3.org/1999/02/22-rdf-syntax-ns#"
   xmlns:svg="http://www.w3.org/2000/svg"
   xmlns="http://www.w3.org/2000/svg"
   xmlns:sodipodi="http://sodipodi.sourceforge.net/DTD/sodipodi-0.dtd"
   xmlns:inkscape="http://www.inkscape.org/namespaces/inkscape"
   id="svg2"
   version="1.1"
   inkscape:version="0.91 r13725"
   xml:space="preserve"
   width="625"
   height="625"
   viewBox="0 0 625 625"
   sodipodi:docname="MD_Social_hour.svg"
   inkscape:export-filename="/home/michael/Documents/SocialHour/Assets/MD_Social_hour_mdpi.png"
   inkscape:export-xdpi="6.9120002"
   inkscape:export-ydpi="6.9120002"><metadata
     id="metadata8"><rdf:RDF><cc:Work
         rdf:about=""><dc:format>image/svg+xml</dc:format><dc:type
           rdf:resource="http://purl.org/dc/dcmitype/StillImage" /></cc:Work></rdf:RDF></metadata><defs
     id="defs6"><clipPath
       clipPathUnits="userSpaceOnUse"
       id="clipPath554"><path
         d="M 0,500 500,500 500,0 0,0 0,500 Z"
         id="path556"
         inkscape:connector-curvature="0" /></clipPath></defs><sodipodi:namedview
     pagecolor="#ffffff"
     bordercolor="#666666"
     borderopacity="1"
     objecttolerance="10"
     gridtolerance="10"
     guidetolerance="10"
     inkscape:pageopacity="0"
     inkscape:pageshadow="2"
     inkscape:window-width="1920"
     inkscape:window-height="1025"
     id="namedview4"
     showgrid="false"
     showguides="false"
     inkscape:zoom="1.0680141"
     inkscape:cx="52.426326"
     inkscape:cy="363.88327"
     inkscape:window-x="0"
     inkscape:window-y="27"
     inkscape:window-maximized="1"
     inkscape:current-layer="g10"><inkscape:grid
       type="xygrid"
       id="grid4719" /></sodipodi:namedview><g
     id="g10"
     inkscape:groupmode="layer"
     inkscape:label="Google_MD_Icon_Grid"
     transform="matrix(1.25,0,0,-1.25,0,625)"><g
       style="fill:#4c2626;fill-opacity:1"
       id="g4747"
       transform="matrix(1.0179551,0,0,1.0179551,-0.88878052,-0.88878052)"
       inkscape:export-xdpi="8.4700003"
       inkscape:export-ydpi="8.4700003"><g
         style="fill:#4c2626;fill-opacity:1"
         id="g4749"
         transform="matrix(1.1671778,0,0,1.1618807,423.75252,250)"><path
           d="m 0,0 c 0,82.842 -67.157,150 -150,150 -82.842,0 -150,-67.158 -150,-150 0,-82.843 67.158,-150 150,-150 82.843,0 150,67.157 150,150 z"
           style="fill:#4c2626;fill-opacity:1;stroke:#bdbdbd;stroke-width:1;stroke-linecap:butt;stroke-linejoin:miter;stroke-miterlimit:10;stroke-dasharray:none;stroke-opacity:1"
           id="path4751"
           inkscape:connector-curvature="0" /></g><g
         style="fill:#4c2626;fill-opacity:1"
         id="g4753"
         transform="translate(50,250)"><path
           d="M 0,0 C 0,110.457 89.543,200 200,200 310.457,200 400,110.457 400,0 400,-110.457 310.457,-200 200,-200 89.543,-200 0,-110.457 0,0 Z"
           style="fill:#4c2626;fill-opacity:1;stroke:#bdbdbd;stroke-width:1;stroke-linecap:butt;stroke-linejoin:miter;stroke-miterlimit:10;stroke-dasharray:none;stroke-opacity:1"
           id="path4755"
           inkscape:connector-curvature="0" /></g></g><g
       id="g3903"
       style="fill:#694040;fill-opacity:1"
       transform="translate(3.5999945,3.5999945)"><g
         transform="matrix(1.1671778,0,0,1.1618807,423.75252,250)"
         id="g558"
         style="fill:#694040;fill-opacity:1"><path
           inkscape:connector-curvature="0"
           id="path560"
           style="fill:#694040;fill-opacity:1;stroke:#bdbdbd;stroke-width:1;stroke-linecap:butt;stroke-linejoin:miter;stroke-miterlimit:10;stroke-dasharray:none;stroke-opacity:1"
           d="m 0,0 c 0,82.842 -67.157,150 -150,150 -82.842,0 -150,-67.158 -150,-150 0,-82.843 67.158,-150 150,-150 82.843,0 150,67.157 150,150 z" /></g><g
         transform="translate(50,250)"
         id="g562"
         style="fill:#694040;fill-opacity:1"><path
           inkscape:connector-curvature="0"
           id="path564"
           style="fill:#694040;fill-opacity:1;stroke:#bdbdbd;stroke-width:1;stroke-linecap:butt;stroke-linejoin:miter;stroke-miterlimit:10;stroke-dasharray:none;stroke-opacity:1"
           d="M 0,0 C 0,110.457 89.543,200 200,200 310.457,200 400,110.457 400,0 400,-110.457 310.457,-200 200,-200 89.543,-200 0,-110.457 0,0 Z" /></g></g><circle
       r="120"
       transform="scale(1,-1)"
       cy="-251.05933"
       cx="250"
       id="circle4743"
       style="opacity:1;fill:#7ebf00;fill-opacity:1" /><circle
       style="opacity:1;fill:#cefd73;fill-opacity:1"
       id="circle4741"
       cx="250"
       cy="-251.05933"
       transform="scale(1,-1)"
       r="100" /><circle
       r="80"
       transform="scale(1,-1)"
       cy="-251.05933"
       cx="250"
       id="circle4739"
       style="opacity:1;fill:#fff391;fill-opacity:1" /><circle
       style="opacity:1;fill:#d27844;fill-opacity:1"
       id="path4735"
       cx="250"
       cy="-251.05933"
       transform="scale(1,-1)"
       r="60" /><circle
       r="40"
       transform="scale(1,-1)"
       cy="-251.05933"
       cx="250"
       id="circle4745"
       style="opacity:1;fill:#d27e7e;fill-opacity:1" /><rect
       style="fill:#693f3f;fill-opacity:1"
       id="rect4727"
       width="134.95433"
       height="127.45687"
       x="176.41299"
       y="-172.24216"
       transform="matrix(0.96592583,0.25881905,0.25881905,-0.96592583,0,0)" /><rect
       style="fill:#ffffff;fill-opacity:1"
       id="rect4721"
       width="20"
       height="200"
       x="-185.63637"
       y="-309.92023"
       transform="matrix(0.25881905,-0.96592583,-0.96592583,-0.25881905,0,0)" /><rect
       transform="matrix(0.96592583,0.25881905,0.25881905,-0.96592583,0,0)"
       y="-185.18765"
       x="291.77585"
       height="128"
       width="20"
       id="rect4725"
       style="fill:#ffffff;fill-opacity:1" /></g></svg>